# xmcd CD database file
#
# Track frame offsets:
#	150
#	24856
#	59626
#	77137
#	94560
#	115121
#	130613
#	145716
#	167142
#	188180
#	205280
#	226379
#
# Disc length: 3262 seconds
#
# Revision: 0
# Processed by: cddbd v1.5.2PL0 Copyright (c) Steve Scherf et al.
# Submitted via: CDex 1.86
#
DISCID=990cbc0c
DTITLE=LRBC - Collection #30
DYEAR=2018
DGENRE=Blues
TTITLE0=Buddy Guy - Smarter Than I Was
TTITLE1=Charlie Musselwhite - My Kinda Gal
TTITLE2=Shemekia Copeland - Crossbone Beach
TTITLE3=Kenny Neal - Bloodline
TTITLE4=Deanna Bogart - Collarbone
TTITLE5=JP Soars - Reefer Man
TTITLE6=Tom Hambridge - Rachel Fay
TTITLE7=Marquise Knox - Sweet Smell
TTITLE8=Professor Louie - Some Bad News
TTITLE9=Randy Oxford - Full Moon Rising
TTITLE10=Nathan James - Is It Too Late
TTITLE11=Reverend Peyton's Big Damn Band - We Deserve A Happy Ending
EXTD=YEAR: 2018
EXTT0=
EXTT1=
EXTT2=
EXTT3=
EXTT4=
EXTT5=
EXTT6=
EXTT7=
EXTT8=
EXTT9=
EXTT10=
EXTT11=
PLAYORDER=
